<?xml version="1.0" encoding="iso-8859-1"?>
<!-- Generator: Adobe Illustrator 19.0.0, SVG Export Plug-In . SVG Version: 6.00 Build 0)  -->
<svg version="1.1" id="Capa_1" xmlns="http://www.w3.org/2000/svg" xmlns:xlink="http://www.w3.org/1999/xlink" x="0px" y="0px"
	 viewBox="0 0 511.881 511.881" style="enable-background:new 0 0 511.881 511.881;" xml:space="preserve">
<g>
	<path style="fill:#3A3E48;" d="M357.458,92.308L201.713,2.362c-3.472-2.434-7.911-3.028-11.901-1.591l-0.069-0.069l-34.595,19.926
		l0.069,0.069c-4.074,2.41-6.35,6.99-5.812,11.693V389.13c0.72,12.389,7.298,23.695,17.712,30.443l155.745,89.946
		c3.472,2.434,7.911,3.027,11.901,1.591l1.661-0.969l32.173-18.612l0.138-0.069l0.553-0.346c4.058-2.392,6.333-6.943,5.812-11.624
		V122.752C374.413,110.37,367.859,99.061,357.458,92.308z"/>
	<path style="fill:#445C71;" d="M340.507,142.678v356.74c0.542,4.686-1.702,9.257-5.742,11.693
		c-3.99,1.436-8.428,0.843-11.901-1.591l-155.745-89.946c-10.415-6.749-16.992-18.054-17.712-30.443V32.39
		c-0.538-4.703,1.738-9.282,5.812-11.693c3.989-1.442,8.431-0.848,11.901,1.591l155.745,89.946
		C333.273,118.978,339.831,130.293,340.507,142.678z"/>
	<polygon style="fill:#AED3DB;" points="340.504,179.833 340.504,449.324 149.403,338.968 149.403,69.476 	"/>
	<g>
		<path style="fill:#3A3E48;" d="M250.954,103.667c-0.606,0-1.202-0.159-1.726-0.463l-29.858-17.24
			c-1.071-0.618-1.73-1.76-1.73-2.996c0-1.236,0.659-2.378,1.73-2.997c1.07-0.618,2.389-0.618,3.46,0l29.858,17.24
			c1.357,0.783,2.019,2.38,1.613,3.894C253.893,102.618,252.52,103.669,250.954,103.667L250.954,103.667z"/>
		<path style="fill:#3A3E48;" d="M274.849,117.458c-0.607,0-1.204-0.16-1.73-0.463l-5.973-3.446
			c-1.071-0.618-1.732-1.76-1.732-2.997c0-1.237,0.659-2.379,1.73-2.998c1.071-0.618,2.39-0.618,3.461,0.001l5.973,3.446
			c1.355,0.784,2.015,2.379,1.61,3.891C277.783,116.405,276.414,117.456,274.849,117.458L274.849,117.458z"/>
		
			<ellipse transform="matrix(-0.505 -0.8631 0.8631 -0.505 0.446 853.5235)" style="fill:#3A3E48;" cx="244.971" cy="426.634" rx="25.254" ry="14.578"/>
	</g>
	<polygon style="fill:#FAEDBD;" points="150.081,64.702 82.76,25.817 48.165,45.744 48.165,182.808 149.528,241.273 150.081,243.21 
		161.497,282.44 191.11,265.35 191.525,265.558 226.051,245.562 226.051,108.568 	"/>
	<polygon style="fill:#FCCC88;" points="191.525,128.494 191.525,265.558 191.11,265.35 173.398,255.11 161.497,282.44 
		150.081,243.21 149.528,241.273 48.165,182.808 48.165,45.744 	"/>
	<g>
		<polygon style="fill:#F59F57;" points="191.11,265.35 161.497,282.44 173.398,255.11 		"/>
		<polygon style="fill:#F59F57;" points="226.051,108.568 226.051,245.562 191.525,265.558 191.525,128.494 		"/>
	</g>
	<polygon style="fill:#FAEDBD;" points="392.036,252.966 357.51,233.039 357.441,232.97 320.356,211.59 315.512,214.427 
		315.443,214.427 285.83,231.517 285.83,368.512 303.958,378.959 315.858,420.127 315.997,420.403 345.817,403.175 357.51,409.887 
		357.51,409.956 392.036,429.882 429.121,451.262 463.716,431.335 463.716,294.341 	"/>
	<polygon style="fill:#FCCC88;" points="429.121,314.267 429.121,451.262 392.036,429.882 357.51,409.956 357.51,409.887 
		345.817,403.175 327.828,392.797 315.858,420.127 303.958,378.959 285.83,368.512 285.83,231.517 357.51,272.892 	"/>
	<g>
		<polygon style="fill:#F59F57;" points="463.716,294.341 463.716,431.335 429.121,451.262 429.121,314.267 		"/>
		<polygon style="fill:#F59F57;" points="345.817,403.175 315.997,420.403 315.858,420.127 327.828,392.797 		"/>
	</g>
	<path style="fill:#3193C6;" d="M328.303,365.796l15.255,4.058c2.224,0.009,3.629-1.788,3.629-4.64v-7.747
		c-0.483-0.909-1.037-2.042-1.628-3.341c-2.269-4.971-4.06-10.146-5.35-15.455c-2.273-2.111-3.645-5.016-3.833-8.112v-8.267
		c-0.166-1.435,0.544-2.831,1.802-3.541v-11.952c0,0-1.999-18.588,19.961-5.909c21.96,12.678,19.679,28.795,19.679,28.795v11.952
		c1.095,1.678,1.717,3.62,1.802,5.622v8.267c0,2.179-0.998,3.518-2.491,3.763c-0.882,4.491-3.164,8.588-6.518,11.702v7.555
		c0.16,3.161,1.363,6.181,3.421,8.585l13.943,13.116L328.303,365.796z"/>
	<path style="fill:#D77EB0;" d="M145.607,213.922l-15.879-22.843c-1.18-1.746-2.076-3.668-2.652-5.696
		c-0.574-1.659,0.283-2.723,1.575-1.977l14.497,8.37c2.947,1.361,6.073,2.297,9.283,2.779c2.368,0.201,3.184-0.868,1.702-4.142
		c-4.33-9.57-13.935-29.226-14.225-46.587c-1.845-15.154-10.798-28.524-24.108-36.001c-20.491-11.831-23.583,2.35-23.845,6.746
		c-0.746,11.931-4.655,23.449-11.326,33.369c-1.029,2.423-0.515,5.226,1.308,7.125c1.831,2.338,4.215,4.185,6.936,5.375
		l14.596,8.427c1.426,0.823,2.055,3.472,0.936,3.839c-0.729,0.268-1.485,0.457-2.254,0.565l-16.155,6.234L145.607,213.922z"/>
</g>
<g>
</g>
<g>
</g>
<g>
</g>
<g>
</g>
<g>
</g>
<g>
</g>
<g>
</g>
<g>
</g>
<g>
</g>
<g>
</g>
<g>
</g>
<g>
</g>
<g>
</g>
<g>
</g>
<g>
</g>
</svg>
